<svg xmlns="http://www.w3.org/2000/svg"><style>:root svg:not(:target){display:none}</style><svg viewBox="0 0 22 18" fill="none" id="advantages-1"><path d="M16.9 15.67v-6.67a7.78 7.78 0 1 0-7.78 7.78h6.67a1.11 1.11 0 0 0 1.11-1.11Zm0 0v-4.45h3.33a1.11 1.11 0 0 1 1.12 1.11v2.23a1.11 1.11 0 0 1-1.12 1.1h-3.33Zm-7.78-3.34a3.33 3.33 0 1 1 0-6.66 3.33 3.33 0 0 1 0 6.66Z" stroke="#242C3C" stroke-linecap="round" stroke-linejoin="round"></path></svg><svg viewBox="0 0 19 22" fill="none" id="advantages-2"><path d="m15.23 6.78 1.67-1.67m-13.44 1.67-1.67-1.67m7.56-.78a8.33 8.33 0 1 1 0 16.67 8.33 8.33 0 0 1 0-16.67Zm0 0v-3.33m-3.34 0h6.67m-3.33 7.78v4.44l2.28 2.58a3.88 3.88 0 0 0-2.28-7.02Z" stroke="#242C3C" stroke-linecap="round" stroke-linejoin="round"></path></svg><svg viewBox="0 0 15 22" fill="none" id="advantages-3"><path d="m3.02 12.52-.01 7.38c0 .9.63 1.34 1.4.97l2.69-1.27c.22-.11.59-.11.8 0l2.7 1.27c.77.36 1.4-.07 1.4-.97v-7.56" stroke="#242C3C" stroke-linecap="round" stroke-linejoin="round"></path><path d="M7.35 14.2a6.6 6.6 0 1 0 0-13.2 6.6 6.6 0 0 0 0 13.2Z" stroke="#242C3C" stroke-linecap="round" stroke-linejoin="round"></path><path d="m8.01 4.96.53 1.06c.07.15.27.3.43.32l.95.16c.62.1.76.55.32 1l-.74.74a.66.66 0 0 0-.16.55l.21.93c.17.73-.22 1.02-.86.63l-.9-.53a.64.64 0 0 0-.6 0l-.89.53c-.64.39-1.03.1-.86-.63l.21-.93a.66.66 0 0 0-.16-.55l-.74-.75c-.44-.44-.3-.89.32-.99l.95-.16a.65.65 0 0 0 .43-.32l.52-1.06c.3-.58.76-.58 1.04 0Z" stroke="#292D32" stroke-linecap="round" stroke-linejoin="round"></path></svg><svg viewBox="0 0 17 17" fill="none" id="btn-right-arrow"><path d="M8.5 16.5a8 8 0 1 1 0-16 8 8 0 0 1 0 16Z" stroke="#FFF" stroke-linejoin="round"></path><path d="m8.5 11.7 3.2-3.2-3.2-3.2m-3.2 3.2h6.4" stroke="#FFF" stroke-linejoin="round" stroke-linecap="round"></path></svg><svg viewBox="0 0 23 23" fill="none" id="calc"><path d="M.5 2.5a2 2 0 0 1 2-2h18a2 2 0 0 1 2 2v18a2 2 0 0 1-2 2h-18a2 2 0 0 1-2-2v-18Z" stroke="#6A7181"></path><path d="M14.5 6.5h4m-4 8.5h4m-4 3h4m-14-11.5h4m-2 0v-2m0 2v2m-1.41 9.41 1.41-1.41 1.41-1.41m-1.41 1.41-1.41-1.41m1.41 1.41 1.41 1.41" stroke="#6A7181" stroke-linejoin="round"></path></svg><svg viewBox="0 0 111 338" fill="none" id="card-line"><path d="M494.32-272.1c-69.48 83.14-137.15 119.92-188.51 137.86-42.82 14.95-56.94 10.73-91.4 29.53-74.78 40.8-148.85 137.33-117.4 202.01 15.48 31.86 48.86 30.47 102.15 57.9 47.93 24.67 109.49 71.9 160.46 171.62" stroke="url(#card-line_2ard-line_0)" stroke-miterlimit="10"></path><path d="M481.76-275.15c-63.17 82-127.62 119.08-176.27 137.71-40.94 15.67-54.76 14.16-89.28 34.67-72.43 43.03-142.74 133.46-114.58 197.34 14.5 32.9 46.24 34.72 98.65 64.2 46.14 25.94 106.26 73.41 156.97 171.57" stroke="url(#card-line_2ard-line_1)" stroke-miterlimit="10"></path><path d="M469.21-278.2c-56.86 80.87-118.11 118.27-164.03 137.57-39.13 16.44-52.58 17.53-87.18 39.8-70.1 45.13-136.77 129.73-111.75 192.67 13.52 34 43.61 38.93 95.15 70.5 44.34 27.17 103.03 74.94 153.47 171.52" stroke="url(#card-line_2)" stroke-miterlimit="10"></path><path d="M456.67-281.26c-50.55 79.75-108.64 117.53-151.82 137.44-37.33 17.22-50.37 20.86-85.06 44.95-67.8 47.07-130.94 126.1-108.92 187.99 12.51 35.16 40.97 43.09 91.65 76.8 42.56 28.32 99.8 76.46 149.98 171.46" stroke="url(#card-line_3)" stroke-miterlimit="10"></path><path d="M444.15-284.31c-44.26 78.63-99.2 116.83-139.6 137.3-35.61 18.04-48.21 24.15-82.97 50.07-65.53 48.9-125.27 122.6-106.09 183.33 11.5 36.38 38.33 47.18 88.15 83.1 40.8 29.41 96.58 77.97 146.48 171.4" stroke="url(#card-line_4)" stroke-miterlimit="10"></path><path d="M431.63-287.37c-37.96 77.5-89.8 116.2-127.4 137.17-33.92 18.92-46.03 27.37-80.85 55.2-63.32 50.62-119.76 119.2-103.28 178.66 10.44 37.66 35.7 51.22 84.66 89.4 39.05 30.46 93.36 79.49 143 171.36" stroke="url(#card-line_5)" stroke-miterlimit="10"></path><path d="M419.13-290.42c-31.67 76.38-80.4 115.65-115.21 137.04-32.28 19.83-43.88 30.55-78.76 60.33-61.16 52.23-114.39 115.86-100.45 174 9.35 38.96 33.1 55.2 81.17 95.68 37.33 31.45 90.13 81.01 139.52 171.3" stroke="url(#card-line_6)" stroke-miterlimit="10"></path><path d="M406.63-293.47c-25.4 75.26-71.02 115.18-103.03 136.9-30.68 20.82-41.75 33.7-76.65 65.47-59.06 53.76-109.17 112.61-97.63 169.33 8.2 40.33 30.5 59.13 77.67 101.98 35.65 32.38 86.92 82.51 136.05 171.25" stroke="url(#card-line_7)" stroke-miterlimit="10"></path><path d="M394.15-296.52c-19.12 74.13-61.64 114.8-90.86 136.77-29.1 21.87-39.66 36.78-74.55 70.58-57.02 55.22-104.1 109.43-94.82 164.67 7 41.73 27.96 63.01 74.2 108.28 33.98 33.28 83.7 84.03 132.55 171.2" stroke="url(#card-line_8)" stroke-miterlimit="10"></path><path d="M381.69-299.57c-12.85 73.01-52.25 114.54-78.71 136.64-27.55 23-37.59 39.84-72.45 75.7-55.03 56.6-99.16 106.28-92 160.02 5.73 43.14 25.45 66.83 70.7 114.56 32.36 34.13 80.5 85.55 129.1 171.15" stroke="url(#card-line_9)" stroke-miterlimit="10"></path><path d="M369.23-302.63c-6.6 71.9-42.83 114.4-66.57 136.51-26 24.22-35.56 42.88-70.35 80.83-53.11 57.94-94.34 103.16-89.2 155.36 4.4 44.6 23 70.6 67.23 120.85 30.78 34.95 77.28 87.06 125.62 171.1" stroke="url(#card-line_10)" stroke-miterlimit="10"></path><path d="M356.78-305.68c-.33 70.78-33.36 114.35-54.43 136.38-24.42 25.54-33.59 45.88-68.26 85.95-51.25 59.23-89.65 100.07-86.39 150.7 2.97 46.06 20.6 74.35 63.76 127.14 29.22 35.74 74.07 88.58 122.14 171.05" stroke="url(#card-line_11)" stroke-miterlimit="10"></path><path d="M344.35-308.72c5.92 69.65-23.84 114.39-42.32 136.24-22.78 26.95-31.64 48.84-66.16 91.06-49.45 60.49-85.06 97-83.58 146.07 1.43 47.52 18.26 78.03 60.28 133.4 27.71 36.52 70.87 90.1 118.68 171.01" stroke="url(#card-line_12)" stroke-miterlimit="10"></path><path d="M331.93-311.77c12.16 68.54-14.24 114.53-30.21 136.12-21.07 28.45-29.76 51.77-64.07 96.17-47.7 61.71-80.57 93.9-80.78 141.41-.2 49 15.98 81.7 56.81 139.69 26.24 37.26 67.68 91.61 115.21 170.96" stroke="url(#card-line_13)" stroke-miterlimit="10"></path><path d="M319.52-314.82c18.4 67.42-4.54 114.75-18.11 135.98-19.22 30.06-27.92 54.7-61.99 101.29-46 62.93-76.18 90.82-77.97 136.77-1.96 50.46 13.77 85.32 53.35 145.97 24.8 37.99 64.48 93.12 111.76 170.9" stroke="url(#card-line_14)" stroke-miterlimit="10"></path><path d="M307.12-317.87c24.63 66.31 5.26 115.01-6.03 135.86-17.18 31.73-26.12 57.6-59.9 106.4-44.37 64.12-71.88 87.71-75.17 132.13-3.84 51.9 11.62 88.92 49.88 152.24 23.4 38.72 61.29 94.63 108.3 170.86" stroke="url(#card-line_15)" stroke-miterlimit="10"></path><path d="M294.73-320.9c30.86 65.18 8.88 113.86 6.05 135.72-4.64 35.77-24.39 60.49-57.81 111.51-42.79 65.32-67.65 84.56-72.38 127.48-5.88 53.31 9.55 92.51 46.43 158.51 22.03 39.44 58.09 96.15 104.83 170.82" stroke="url(#card-line_16)" stroke-miterlimit="10"></path><path d="M282.1-324.22c37.12 64.1 19.93 114.71 18.13 135.66-3.16 36.7-22.72 63.37-55.79 116.66-41.3 66.54-63.55 81.4-69.65 122.9-8.05 54.69 7.56 96.1 43.02 164.83 20.72 40.17 54.95 97.7 101.5 170.83" stroke="url(#card-line_17)" stroke-miterlimit="10"></path><path d="M269.4-327.59c43.4 63.01 31.26 115.38 30.22 135.59-1.94 37.71-21.1 66.27-53.78 121.82-39.84 67.77-59.5 78.21-66.95 118.3-10.4 56.04 5.64 99.73 39.61 171.2 19.46 40.9 51.84 99.25 98.18 170.86" stroke="url(#card-line_18)" stroke-miterlimit="10"></path><path d="M256.7-330.96c49.67 61.92 45.66 115.95 42.32 135.52-6.57 38.53-19.53 69.17-51.75 126.99-38.45 69-55.5 74.95-64.24 113.72-12.9 57.29 3.78 103.33 36.2 177.54 18.21 41.66 48.71 100.82 94.84 170.9" stroke="url(#card-line_19)" stroke-miterlimit="10"></path><path d="M243.98-334.33c55.96 60.83 56.03 115.99 54.45 135.45-3.24 40-18 72.05-49.72 132.16-37.08 70.25-51.52 71.61-61.52 109.13-15.58 58.46 1.97 106.94 32.78 183.89 16.99 42.41 45.58 102.37 91.5 170.92" stroke="url(#card-line_20)" stroke-miterlimit="10"></path><path d="M231.26-337.7c62.25 59.74 66.46 115.86 66.6 135.38.3 41.3-16.52 74.94-47.7 137.33-35.74 71.51-47.55 68.2-58.8 104.53-18.4 59.54.24 110.56 29.37 190.25 15.78 43.18 42.43 103.93 88.15 170.95" stroke="url(#card-line_21)" stroke-miterlimit="10"></path><defs><linearGradient id="card-line_0" x1="455.644" y1="34.982" x2="128.962" y2="-72.505" gradientUnits="userSpaceOnUse"><stop stop-color="#A7AFBF"></stop><stop offset="1" stop-color="#A7AFBF" stop-opacity=".19"></stop></linearGradient><linearGradient id="card-line_1" x1="453.838" y1="36.717" x2="133.334" y2="-68.713" gradientUnits="userSpaceOnUse"><stop stop-color="#A7AFBF"></stop><stop offset="1" stop-color="#A7AFBF" stop-opacity=".19"></stop></linearGradient><linearGradient id="card-line_2" x1="452.022" y1="38.456" x2="137.644" y2="-64.935" gradientUnits="userSpaceOnUse"><stop stop-color="#A7AFBF"></stop><stop offset="1" stop-color="#A7AFBF" stop-opacity=".19"></stop></linearGradient><linearGradient id="card-line_3" x1="450.215" y1="40.193" x2="141.889" y2="-61.183" gradientUnits="userSpaceOnUse"><stop stop-color="#A7AFBF"></stop><stop offset="1" stop-color="#A7AFBF" stop-opacity=".19"></stop></linearGradient><linearGradient id="card-line_4" x1="448.4" y1="41.922" x2="146.065" y2="-57.459" gradientUnits="userSpaceOnUse"><stop stop-color="#A7AFBF"></stop><stop offset="1" stop-color="#A7AFBF" stop-opacity=".19"></stop></linearGradient><linearGradient id="card-line_5" x1="446.602" y1="43.661" x2="150.167" y2="-53.756" gradientUnits="userSpaceOnUse"><stop stop-color="#A7AFBF"></stop><stop offset="1" stop-color="#A7AFBF" stop-opacity=".19"></stop></linearGradient><linearGradient id="card-line_6" x1="444.796" y1="45.396" x2="154.195" y2="-50.078" gradientUnits="userSpaceOnUse"><stop stop-color="#A7AFBF"></stop><stop offset="1" stop-color="#A7AFBF" stop-opacity=".19"></stop></linearGradient><linearGradient id="card-line_7" x1="442.991" y1="47.135" x2="158.148" y2="-46.422" gradientUnits="userSpaceOnUse"><stop stop-color="#A7AFBF"></stop><stop offset="1" stop-color="#A7AFBF" stop-opacity=".19"></stop></linearGradient><linearGradient id="card-line_8" x1="441.187" y1="48.872" x2="162.026" y2="-42.793" gradientUnits="userSpaceOnUse"><stop stop-color="#A7AFBF"></stop><stop offset="1" stop-color="#A7AFBF" stop-opacity=".19"></stop></linearGradient><linearGradient id="card-line_9" x1="439.392" y1="50.604" x2="165.84" y2="-39.193" gradientUnits="userSpaceOnUse"><stop stop-color="#A7AFBF"></stop><stop offset="1" stop-color="#A7AFBF" stop-opacity=".19"></stop></linearGradient><linearGradient id="card-line_10" x1="437.582" y1="52.337" x2="169.568" y2="-35.616" gradientUnits="userSpaceOnUse"><stop stop-color="#A7AFBF"></stop><stop offset="1" stop-color="#A7AFBF" stop-opacity=".19"></stop></linearGradient><linearGradient id="card-line_11" x1="435.785" y1="54.072" x2="173.233" y2="-32.062" gradientUnits="userSpaceOnUse"><stop stop-color="#A7AFBF"></stop><stop offset="1" stop-color="#A7AFBF" stop-opacity=".19"></stop></linearGradient><linearGradient id="card-line_12" x1="433.985" y1="55.807" x2="176.828" y2="-28.531" gradientUnits="userSpaceOnUse"><stop stop-color="#A7AFBF"></stop><stop offset="1" stop-color="#A7AFBF" stop-opacity=".19"></stop></linearGradient><linearGradient id="card-line_13" x1="432.183" y1="57.539" x2="180.36" y2="-25.023" gradientUnits="userSpaceOnUse"><stop stop-color="#A7AFBF"></stop><stop offset="1" stop-color="#A7AFBF" stop-opacity=".19"></stop></linearGradient><linearGradient id="card-line_14" x1="430.398" y1="59.272" x2="183.82" y2="-21.544" gradientUnits="userSpaceOnUse"><stop stop-color="#A7AFBF"></stop><stop offset="1" stop-color="#A7AFBF" stop-opacity=".19"></stop></linearGradient><linearGradient id="card-line_15" x1="428.594" y1="61.006" x2="187.212" y2="-18.08" gradientUnits="userSpaceOnUse"><stop stop-color="#A7AFBF"></stop><stop offset="1" stop-color="#A7AFBF" stop-opacity=".19"></stop></linearGradient><linearGradient id="card-line_16" x1="426.791" y1="62.742" x2="190.536" y2="-14.638" gradientUnits="userSpaceOnUse"><stop stop-color="#A7AFBF"></stop><stop offset="1" stop-color="#A7AFBF" stop-opacity=".19"></stop></linearGradient><linearGradient id="card-line_17" x1="424.9" y1="64.359" x2="180.982" y2="-15.557" gradientUnits="userSpaceOnUse"><stop stop-color="#A7AFBF"></stop><stop offset="1" stop-color="#A7AFBF" stop-opacity=".19"></stop></linearGradient><linearGradient id="card-line_18" x1="422.958" y1="65.943" x2="167.822" y2="-17.689" gradientUnits="userSpaceOnUse"><stop stop-color="#A7AFBF"></stop><stop offset="1" stop-color="#A7AFBF" stop-opacity=".19"></stop></linearGradient><linearGradient id="card-line_19" x1="421.04" y1="67.533" x2="154.661" y2="-19.824" gradientUnits="userSpaceOnUse"><stop stop-color="#A7AFBF"></stop><stop offset="1" stop-color="#A7AFBF" stop-opacity=".19"></stop></linearGradient><linearGradient id="card-line_20" x1="419.11" y1="69.119" x2="141.496" y2="-21.96" gradientUnits="userSpaceOnUse"><stop stop-color="#A7AFBF"></stop><stop offset="1" stop-color="#A7AFBF" stop-opacity=".19"></stop></linearGradient><linearGradient id="card-line_21" x1="417.194" y1="70.709" x2="128.33" y2="-24.099" gradientUnits="userSpaceOnUse"><stop stop-color="#A7AFBF"></stop><stop offset="1" stop-color="#A7AFBF" stop-opacity=".19"></stop></linearGradient></defs></svg><svg viewBox="0 0 23.438 23.438" fill="none" id="inst"><path d="M11.72 0c-3.18 0-3.58.01-4.83.07a8.6 8.6 0 0 0-2.85.55c-.77.3-1.42.7-2.07 1.35a5.74 5.74 0 0 0-1.35 2.07c-.3.75-.5 1.6-.55 2.85a84.59 84.59 0 0 0-.07 4.83c0 3.18.01 3.58.07 4.83a8.6 8.6 0 0 0 .55 2.84c.3.77.7 1.43 1.35 2.08.65.65 1.3 1.05 2.07 1.35.75.3 1.6.49 2.85.55 1.25.05 1.65.07 4.83.07s3.58-.02 4.83-.07a8.62 8.62 0 0 0 2.85-.55c.77-.3 1.42-.7 2.07-1.35a5.75 5.75 0 0 0 1.35-2.08c.29-.74.49-1.6.55-2.84.05-1.25.07-1.65.07-4.83s-.02-3.58-.07-4.83a8.68 8.68 0 0 0-.55-2.85c-.3-.77-.7-1.42-1.35-2.07a5.71 5.71 0 0 0-2.08-1.35 8.63 8.63 0 0 0-2.84-.55 83.6 83.6 0 0 0-4.83-.07Zm-1.05 2.11h1.05c3.13 0 3.5.01 4.74.07 1.14.05 1.76.24 2.17.4.55.21.94.47 1.35.88.4.4.66.8.87 1.35.16.41.36 1.03.4 2.17.06 1.24.08 1.6.08 4.74 0 3.12-.02 3.5-.07 4.73a6.47 6.47 0 0 1-.4 2.18c-.22.54-.47.93-.88 1.34-.41.41-.8.67-1.35.88-.41.16-1.03.35-2.17.4-1.24.06-1.61.07-4.74.07s-3.5-.01-4.74-.07a6.48 6.48 0 0 1-2.17-.4 3.62 3.62 0 0 1-1.35-.88c-.4-.4-.66-.8-.88-1.35a6.46 6.46 0 0 1-.4-2.17 82.4 82.4 0 0 1-.07-4.74 77 77 0 0 1 .07-4.73c.05-1.14.24-1.76.4-2.18.22-.54.47-.93.88-1.34.41-.41.8-.67 1.35-.88a6.48 6.48 0 0 1 2.17-.4 64.7 64.7 0 0 1 3.69-.07Zm7.3 1.95a1.4 1.4 0 1 0 0 2.81 1.4 1.4 0 0 0 0-2.81Zm-6.25 1.64a6.02 6.02 0 1 0 0 12.04 6.02 6.02 0 0 0 0-12.04Zm0 2.11a3.9 3.9 0 1 1 0 7.82 3.9 3.9 0 0 1 0-7.82Z" fill="#FFF"></path></svg><svg viewBox="0 0 23.438 23.438" fill="none" id="instagram"><path d="M11.72 0c-3.18 0-3.58.01-4.83.07a8.6 8.6 0 0 0-2.85.55c-.77.3-1.42.7-2.07 1.35a5.74 5.74 0 0 0-1.35 2.07c-.3.75-.5 1.6-.55 2.85a84.59 84.59 0 0 0-.07 4.83c0 3.18.01 3.58.07 4.83a8.6 8.6 0 0 0 .55 2.84c.3.77.7 1.43 1.35 2.08.65.65 1.3 1.05 2.07 1.35.75.3 1.6.49 2.85.55 1.25.05 1.65.07 4.83.07s3.58-.02 4.83-.07a8.62 8.62 0 0 0 2.85-.55c.77-.3 1.42-.7 2.07-1.35a5.75 5.75 0 0 0 1.35-2.08c.29-.74.49-1.6.55-2.84.05-1.25.07-1.65.07-4.83s-.02-3.58-.07-4.83a8.68 8.68 0 0 0-.55-2.85c-.3-.77-.7-1.42-1.35-2.07a5.71 5.71 0 0 0-2.08-1.35 8.63 8.63 0 0 0-2.84-.55 83.6 83.6 0 0 0-4.83-.07Zm-1.05 2.11h1.05c3.13 0 3.5.01 4.74.07 1.14.05 1.76.24 2.17.4.55.21.94.47 1.35.88.4.4.66.8.87 1.35.16.41.36 1.03.4 2.17.06 1.24.08 1.6.08 4.74 0 3.12-.02 3.5-.07 4.73a6.47 6.47 0 0 1-.4 2.18c-.22.54-.47.93-.88 1.34-.41.41-.8.67-1.35.88-.41.16-1.03.35-2.17.4-1.24.06-1.61.07-4.74.07s-3.5-.01-4.74-.07a6.48 6.48 0 0 1-2.17-.4 3.62 3.62 0 0 1-1.35-.88c-.4-.4-.66-.8-.88-1.35a6.46 6.46 0 0 1-.4-2.17 82.4 82.4 0 0 1-.07-4.74 77 77 0 0 1 .07-4.73c.05-1.14.24-1.76.4-2.18.22-.54.47-.93.88-1.34.41-.41.8-.67 1.35-.88a6.48 6.48 0 0 1 2.17-.4 64.7 64.7 0 0 1 3.69-.07Zm7.3 1.95a1.4 1.4 0 1 0 0 2.81 1.4 1.4 0 0 0 0-2.81Zm-6.25 1.64a6.02 6.02 0 1 0 0 12.04 6.02 6.02 0 0 0 0-12.04Zm0 2.11a3.9 3.9 0 1 1 0 7.82 3.9 3.9 0 0 1 0-7.82Z" fill="#FFF"></path></svg><svg viewBox="0 0 13 19" fill="none" id="map"><path d="M10.74 2.26a6 6 0 0 0-10.24 4.24c0 6 6 12 6 12s6-6 6-12a6 6 0 0 0-1.76-4.24Z" stroke="#242C3C" stroke-linejoin="round"></path><circle cx="6.5" cy="6.5" r="2.5" stroke="#242C3C"></circle></svg><svg viewBox="0 0 9.004 5.002" fill="none" id="menu-arrow"><path d="m.5.5 4 4 4-4" stroke="#6A7181" stroke-linejoin="round" stroke-linecap="round"></path></svg><svg viewBox="0 0 20 20" fill="none" id="mobile-close"><path transform="matrix(.68659 -.72705 .68659 .72705 2.002 20)" stroke="#000" stroke-width="1.5" d="M0-.75h24.76"></path><path transform="matrix(.68659 .72705 -.68659 .72705 1 2)" stroke="#000" stroke-width="1.5" d="M0-.75h24.76"></path></svg><svg viewBox="0 0 21 21" fill="none" id="phone-2"><rect x=".651" y="1.176" width="19" height="19" rx="9.5" stroke="#E5EAF3"></rect><path d="M11.26 7.8a2.23 2.23 0 0 1 1.76 1.76m-1.76-3.55a4.01 4.01 0 0 1 3.55 3.54m-.45 3.56v1.34a.9.9 0 0 1-.97.89 8.83 8.83 0 0 1-6.52-4.05 8.83 8.83 0 0 1-1.37-3.86.9.9 0 0 1 .88-.97h1.34a.9.9 0 0 1 .9.76c.05.43.16.85.3 1.26a.9.9 0 0 1-.2.94l-.56.56a7.14 7.14 0 0 0 2.68 2.68l.56-.57a.9.9 0 0 1 .94-.2c.4.15.83.26 1.26.31a.9.9 0 0 1 .76.91Z" stroke="#242C3C" stroke-linecap="round" stroke-linejoin="round"></path></svg><svg viewBox="0 0 30 30" fill="none" id="phone"><defs><clipPath id="phone_0"><rect rx="7.5" width="29" height="29" transform="translate(.5 .5)" fill="#fff" fill-opacity="0"></rect></clipPath></defs><g clip-path="url(#phone_0)"><path d="M16.67 10.68a3.34 3.34 0 0 1 2.64 2.64m-2.64-5.32a6.02 6.02 0 0 1 5.32 5.31m-.67 7.35a1.34 1.34 0 0 1-1.46 1.33 13.24 13.24 0 0 1-5.77-2.05 13.05 13.05 0 0 1-4.02-4.01 13.24 13.24 0 0 1-2.05-5.8 1.34 1.34 0 0 1 1.33-1.46h2a1.34 1.34 0 0 1 1.34 1.15c.09.64.25 1.27.47 1.88a1.34 1.34 0 0 1-.3 1.41l-.85.85a10.7 10.7 0 0 0 4.02 4.01l.85-.85a1.34 1.34 0 0 1 1.4-.3c.61.23 1.24.39 1.89.47a1.34 1.34 0 0 1 1.15 1.36v2Z" stroke="#242C3C" stroke-linejoin="round"></path></g><rect rx="7.5" width="29" height="29" transform="translate(.5 .5)" stroke="#E5EAF3"></rect></svg><svg viewBox="0 0 23 23" fill="none" id="right-arrow"><path d="M11.5 22.5a11 11 0 1 1 0-22 11 11 0 0 1 0 22Z" stroke="#242C3C" stroke-linejoin="round"></path><path d="m11.5 15.9 4.4-4.4-4.4-4.4m-4.4 4.4h8.8" stroke="#242C3C" stroke-linejoin="round" stroke-linecap="round"></path></svg><svg viewBox="0 0 26.549 30" fill="none" id="tiktok"><path d="M19.67 10.83a11.78 11.78 0 0 0 6.88 2.2v-4.93c-.49 0-.97-.05-1.45-.15v3.88c-2.56 0-4.93-.82-6.87-2.2v10.06a9.11 9.11 0 0 1-14.19 7.57 9.11 9.11 0 0 0 15.63-6.37v-10.06Zm1.79-4.97a6.87 6.87 0 0 1-1.79-4.03v-.63h-1.36a6.9 6.9 0 0 0 3.15 4.66Zm-14.23 17.54a4.17 4.17 0 0 1 4.58-6.5v-5.04a8.7 8.7 0 0 0-1.44-.08v3.92a4.16 4.16 0 0 0-3.14 7.7Z" fill="#FF004F"></path><path d="M18.23 9.63a11.78 11.78 0 0 0 6.88 2.2v-3.88a6.9 6.9 0 0 1-3.65-2.1 6.9 6.9 0 0 1-3.15-4.65h-3.6v19.69a4.17 4.17 0 0 1-7.48 2.5 4.17 4.17 0 0 1 3.14-7.69v-3.92a9.11 9.11 0 0 0-6.33 15.48 9.11 9.11 0 0 0 14.19-7.57v-10.06Z" fill="#000"></path><path d="M25.1 7.95v-1.05a6.88 6.88 0 0 1-3.64-1.04 6.9 6.9 0 0 0 3.65 2.09Zm-6.8-6.75a6.93 6.93 0 0 1-.07-.57v-.63h-4.96v19.69a4.17 4.17 0 0 1-6.04 3.7 4.16 4.16 0 0 0 7.48-2.5v-19.69h3.6Zm-7.93 10.58v-1.12a9.11 9.11 0 0 0-6.33 16.6 9.11 9.11 0 0 1 6.33-15.48Z" fill="#00F2EA"></path></svg><svg viewBox="0 0 20 20" fill="none" id="tm"><defs><linearGradient id="tm_0" x1="1000" y1="0" x2="1000" y2="2000" gradientUnits="userSpaceOnUse"><stop stop-color="#2AABEE"></stop><stop offset="1" stop-color="#229ED9"></stop></linearGradient></defs><path d="M10 0a10 10 0 1 0 0 20 10 10 0 0 0 0-20Z" fill="url(#tm_0)"></path><path d="M4.53 9.9c2.91-1.28 4.86-2.11 5.83-2.52 2.78-1.15 3.35-1.35 3.73-1.36.08 0 .27.02.39.12.1.08.12.19.14.27.01.08.03.25.01.4a118 118 0 0 1-1.13 7.18c-.14.75-.41 1-.68 1.03-.58.05-1.02-.39-1.59-.76-.88-.57-1.37-.93-2.23-1.5-.99-.65-.34-1 .22-1.59.14-.15 2.7-2.48 2.75-2.69 0-.03.02-.12-.04-.18-.06-.05-.15-.03-.21-.02-.09.02-1.5.95-4.22 2.8-.4.27-.76.4-1.08.4a7.76 7.76 0 0 1-1.56-.38c-.62-.2-1.12-.3-1.08-.65.02-.18.27-.37.75-.56Z" fill="#FFF"></path></svg><svg viewBox="0 0 19.91 20" fill="none" id="whatsapp"><defs><linearGradient id="whatsapp_0" x1="995.521" y1="2000" x2="995.521" y2="0" gradientUnits="userSpaceOnUse"><stop stop-color="#1FAF38"></stop><stop offset="1" stop-color="#60D669"></stop></linearGradient></defs><path d="M.08 9.91a9.9 9.9 0 0 0 1.33 4.95l-1.41 5.14 5.26-1.38a9.93 9.93 0 1 0 4.74-18.62 9.93 9.93 0 0 0-9.92 9.91Z" fill="url(#whatsapp_0)"></path><path d="M7.43 5.62c-.2-.43-.4-.44-.58-.45h-.49a.94.94 0 0 0-.68.32c-.24.25-.9.87-.9 2.14 0 1.26.92 2.48 1.05 2.65.13.17 1.77 2.85 4.38 3.87 2.17.86 2.61.69 3.08.65.47-.05 1.52-.62 1.73-1.22.22-.6.22-1.12.15-1.22-.06-.11-.23-.17-.49-.3-.26-.13-1.52-.75-1.75-.84-.24-.08-.41-.13-.58.13-.17.26-.66.84-.81 1-.15.18-.3.2-.56.07-.26-.13-1.08-.4-2.06-1.27a7.73 7.73 0 0 1-1.43-1.78c-.15-.26-.02-.4.11-.52.12-.12.26-.3.39-.45.13-.15.17-.26.25-.43.09-.17.05-.32-.02-.45-.06-.13-.56-1.4-.79-1.9Z" fill="#FFF"></path></svg></svg>