<svg xmlns="http://www.w3.org/2000/svg"><style>:root svg:not(:target){display:none}</style><svg viewBox="0 0 17 17" fill="none" id="btn-right-arrow"><path d="M8.5 16.5a8 8 0 1 1 0-16 8 8 0 0 1 0 16Z" stroke="#FFF" stroke-linejoin="round"></path><path d="m8.5 11.7 3.2-3.2-3.2-3.2m-3.2 3.2h6.4" stroke="#FFF" stroke-linejoin="round" stroke-linecap="round"></path></svg><svg viewBox="0 0 23 23" fill="none" id="calc"><path d="M.5 2.5a2 2 0 0 1 2-2h18a2 2 0 0 1 2 2v18a2 2 0 0 1-2 2h-18a2 2 0 0 1-2-2v-18Z" stroke="#6A7181"></path><path d="M14.5 6.5h4m-4 8.5h4m-4 3h4m-14-11.5h4m-2 0v-2m0 2v2m-1.41 9.41 1.41-1.41 1.41-1.41m-1.41 1.41-1.41-1.41m1.41 1.41 1.41 1.41" stroke="#6A7181" stroke-linejoin="round"></path></svg><svg viewBox="0 0 13 19" fill="none" id="map"><path d="M10.74 2.26a6 6 0 0 0-10.24 4.24c0 6 6 12 6 12s6-6 6-12a6 6 0 0 0-1.76-4.24Z" stroke="#242C3C" stroke-linejoin="round"></path><circle cx="6.5" cy="6.5" r="2.5" stroke="#242C3C"></circle></svg><svg viewBox="0 0 9.004 5.002" fill="none" id="menu-arrow"><path d="m.5.5 4 4 4-4" stroke="#6A7181" stroke-linejoin="round" stroke-linecap="round"></path></svg><svg viewBox="0 0 20 20" fill="none" id="mobile-close"><path transform="matrix(.68659 -.72705 .68659 .72705 2.002 20)" stroke="#000" stroke-width="1.5" d="M0-.75h24.76"></path><path transform="matrix(.68659 .72705 -.68659 .72705 1 2)" stroke="#000" stroke-width="1.5" d="M0-.75h24.76"></path></svg><svg viewBox="0 0 30 30" fill="none" id="phone"><defs><clipPath id="phone_0"><rect rx="7.5" width="29" height="29" transform="translate(.5 .5)" fill="#fff" fill-opacity="0"></rect></clipPath></defs><g clip-path="url(#phone_0)"><path d="M16.67 10.68a3.34 3.34 0 0 1 2.64 2.64m-2.64-5.32a6.02 6.02 0 0 1 5.32 5.31m-.67 7.35a1.34 1.34 0 0 1-1.46 1.33 13.24 13.24 0 0 1-5.77-2.05 13.05 13.05 0 0 1-4.02-4.01 13.24 13.24 0 0 1-2.05-5.8 1.34 1.34 0 0 1 1.33-1.46h2a1.34 1.34 0 0 1 1.34 1.15c.09.64.25 1.27.47 1.88a1.34 1.34 0 0 1-.3 1.41l-.85.85a10.7 10.7 0 0 0 4.02 4.01l.85-.85a1.34 1.34 0 0 1 1.4-.3c.61.23 1.24.39 1.89.47a1.34 1.34 0 0 1 1.15 1.36v2Z" stroke="#242C3C" stroke-linejoin="round"></path></g><rect rx="7.5" width="29" height="29" transform="translate(.5 .5)" stroke="#E5EAF3"></rect></svg><svg viewBox="0 0 23 23" fill="none" id="right-arrow"><path d="M11.5 22.5a11 11 0 1 1 0-22 11 11 0 0 1 0 22Z" stroke="#242C3C" stroke-linejoin="round"></path><path d="m11.5 15.9 4.4-4.4-4.4-4.4m-4.4 4.4h8.8" stroke="#242C3C" stroke-linejoin="round" stroke-linecap="round"></path></svg><svg viewBox="0 0 20 20" fill="none" id="tm"><defs><linearGradient id="tm_0" x1="1000" y1="0" x2="1000" y2="2000" gradientUnits="userSpaceOnUse"><stop stop-color="#2AABEE"></stop><stop offset="1" stop-color="#229ED9"></stop></linearGradient></defs><path d="M10 0a10 10 0 1 0 0 20 10 10 0 0 0 0-20Z" fill="url(#tm_0)"></path><path d="M4.53 9.9c2.91-1.28 4.86-2.11 5.83-2.52 2.78-1.15 3.35-1.35 3.73-1.36.08 0 .27.02.39.12.1.08.12.19.14.27.01.08.03.25.01.4a118 118 0 0 1-1.13 7.18c-.14.75-.41 1-.68 1.03-.58.05-1.02-.39-1.59-.76-.88-.57-1.37-.93-2.23-1.5-.99-.65-.34-1 .22-1.59.14-.15 2.7-2.48 2.75-2.69 0-.03.02-.12-.04-.18-.06-.05-.15-.03-.21-.02-.09.02-1.5.95-4.22 2.8-.4.27-.76.4-1.08.4a7.76 7.76 0 0 1-1.56-.38c-.62-.2-1.12-.3-1.08-.65.02-.18.27-.37.75-.56Z" fill="#FFF"></path></svg><svg viewBox="0 0 19.91 20" fill="none" id="whatsapp"><defs><linearGradient id="whatsapp_0" x1="995.521" y1="2000" x2="995.521" y2="0" gradientUnits="userSpaceOnUse"><stop stop-color="#1FAF38"></stop><stop offset="1" stop-color="#60D669"></stop></linearGradient></defs><path d="M.08 9.91a9.9 9.9 0 0 0 1.33 4.95l-1.41 5.14 5.26-1.38a9.93 9.93 0 1 0 4.74-18.62 9.93 9.93 0 0 0-9.92 9.91Z" fill="url(#whatsapp_0)"></path><path d="M7.43 5.62c-.2-.43-.4-.44-.58-.45h-.49a.94.94 0 0 0-.68.32c-.24.25-.9.87-.9 2.14 0 1.26.92 2.48 1.05 2.65.13.17 1.77 2.85 4.38 3.87 2.17.86 2.61.69 3.08.65.47-.05 1.52-.62 1.73-1.22.22-.6.22-1.12.15-1.22-.06-.11-.23-.17-.49-.3-.26-.13-1.52-.75-1.75-.84-.24-.08-.41-.13-.58.13-.17.26-.66.84-.81 1-.15.18-.3.2-.56.07-.26-.13-1.08-.4-2.06-1.27a7.73 7.73 0 0 1-1.43-1.78c-.15-.26-.02-.4.11-.52.12-.12.26-.3.39-.45.13-.15.17-.26.25-.43.09-.17.05-.32-.02-.45-.06-.13-.56-1.4-.79-1.9Z" fill="#FFF"></path></svg></svg>