<svg xmlns="http://www.w3.org/2000/svg"><style>:root svg:not(:target){display:none}</style><svg viewBox="0 0 17 17" fill="none" id="btn-right-arrow"><path d="M8.5 16.5a8 8 0 1 1 0-16 8 8 0 0 1 0 16Z" stroke="#FFF" stroke-linejoin="round"></path><path d="m8.5 11.7 3.2-3.2-3.2-3.2m-3.2 3.2h6.4" stroke="#FFF" stroke-linejoin="round" stroke-linecap="round"></path></svg><svg viewBox="0 0 23 23" fill="none" id="calc"><path d="M.5 2.5a2 2 0 0 1 2-2h18a2 2 0 0 1 2 2v18a2 2 0 0 1-2 2h-18a2 2 0 0 1-2-2v-18Z" stroke="#6A7181"></path><path d="M14.5 6.5h4m-4 8.5h4m-4 3h4m-14-11.5h4m-2 0v-2m0 2v2m-1.41 9.41 1.41-1.41 1.41-1.41m-1.41 1.41-1.41-1.41m1.41 1.41 1.41 1.41" stroke="#6A7181" stroke-linejoin="round"></path></svg><svg viewBox="0 0 23.438 23.438" fill="none" id="instagram"><path d="M11.72 0c-3.18 0-3.58.01-4.83.07a8.6 8.6 0 0 0-2.85.55c-.77.3-1.42.7-2.07 1.35a5.74 5.74 0 0 0-1.35 2.07c-.3.75-.5 1.6-.55 2.85a84.59 84.59 0 0 0-.07 4.83c0 3.18.01 3.58.07 4.83a8.6 8.6 0 0 0 .55 2.84c.3.77.7 1.43 1.35 2.08.65.65 1.3 1.05 2.07 1.35.75.3 1.6.49 2.85.55 1.25.05 1.65.07 4.83.07s3.58-.02 4.83-.07a8.62 8.62 0 0 0 2.85-.55c.77-.3 1.42-.7 2.07-1.35a5.75 5.75 0 0 0 1.35-2.08c.29-.74.49-1.6.55-2.84.05-1.25.07-1.65.07-4.83s-.02-3.58-.07-4.83a8.68 8.68 0 0 0-.55-2.85c-.3-.77-.7-1.42-1.35-2.07a5.71 5.71 0 0 0-2.08-1.35 8.63 8.63 0 0 0-2.84-.55 83.6 83.6 0 0 0-4.83-.07Zm-1.05 2.11h1.05c3.13 0 3.5.01 4.74.07 1.14.05 1.76.24 2.17.4.55.21.94.47 1.35.88.4.4.66.8.87 1.35.16.41.36 1.03.4 2.17.06 1.24.08 1.6.08 4.74 0 3.12-.02 3.5-.07 4.73a6.47 6.47 0 0 1-.4 2.18c-.22.54-.47.93-.88 1.34-.41.41-.8.67-1.35.88-.41.16-1.03.35-2.17.4-1.24.06-1.61.07-4.74.07s-3.5-.01-4.74-.07a6.48 6.48 0 0 1-2.17-.4 3.62 3.62 0 0 1-1.35-.88c-.4-.4-.66-.8-.88-1.35a6.46 6.46 0 0 1-.4-2.17 82.4 82.4 0 0 1-.07-4.74 77 77 0 0 1 .07-4.73c.05-1.14.24-1.76.4-2.18.22-.54.47-.93.88-1.34.41-.41.8-.67 1.35-.88a6.48 6.48 0 0 1 2.17-.4 64.7 64.7 0 0 1 3.69-.07Zm7.3 1.95a1.4 1.4 0 1 0 0 2.81 1.4 1.4 0 0 0 0-2.81Zm-6.25 1.64a6.02 6.02 0 1 0 0 12.04 6.02 6.02 0 0 0 0-12.04Zm0 2.11a3.9 3.9 0 1 1 0 7.82 3.9 3.9 0 0 1 0-7.82Z" fill="#FFF"></path></svg><svg viewBox="0 0 13 19" fill="none" id="map"><path d="M10.74 2.26a6 6 0 0 0-10.24 4.24c0 6 6 12 6 12s6-6 6-12a6 6 0 0 0-1.76-4.24Z" stroke="#242C3C" stroke-linejoin="round"></path><circle cx="6.5" cy="6.5" r="2.5" stroke="#242C3C"></circle></svg><svg viewBox="0 0 9.004 5.002" fill="none" id="menu-arrow"><path d="m.5.5 4 4 4-4" stroke="#6A7181" stroke-linejoin="round" stroke-linecap="round"></path></svg><svg viewBox="0 0 20 20" fill="none" id="mobile-close"><path transform="matrix(.68659 -.72705 .68659 .72705 2.002 20)" stroke="#000" stroke-width="1.5" d="M0-.75h24.76"></path><path transform="matrix(.68659 .72705 -.68659 .72705 1 2)" stroke="#000" stroke-width="1.5" d="M0-.75h24.76"></path></svg><svg viewBox="0 0 30 30" fill="none" id="phone"><defs><clipPath id="phone_0"><rect rx="7.5" width="29" height="29" transform="translate(.5 .5)" fill="#fff" fill-opacity="0"></rect></clipPath></defs><g clip-path="url(#phone_0)"><path d="M16.67 10.68a3.34 3.34 0 0 1 2.64 2.64m-2.64-5.32a6.02 6.02 0 0 1 5.32 5.31m-.67 7.35a1.34 1.34 0 0 1-1.46 1.33 13.24 13.24 0 0 1-5.77-2.05 13.05 13.05 0 0 1-4.02-4.01 13.24 13.24 0 0 1-2.05-5.8 1.34 1.34 0 0 1 1.33-1.46h2a1.34 1.34 0 0 1 1.34 1.15c.09.64.25 1.27.47 1.88a1.34 1.34 0 0 1-.3 1.41l-.85.85a10.7 10.7 0 0 0 4.02 4.01l.85-.85a1.34 1.34 0 0 1 1.4-.3c.61.23 1.24.39 1.89.47a1.34 1.34 0 0 1 1.15 1.36v2Z" stroke="#242C3C" stroke-linejoin="round"></path></g><rect rx="7.5" width="29" height="29" transform="translate(.5 .5)" stroke="#E5EAF3"></rect></svg><svg viewBox="0 0 23 23" fill="none" id="right-arrow"><path d="M11.5 22.5a11 11 0 1 1 0-22 11 11 0 0 1 0 22Z" stroke="#242C3C" stroke-linejoin="round"></path><path d="m11.5 15.9 4.4-4.4-4.4-4.4m-4.4 4.4h8.8" stroke="#242C3C" stroke-linejoin="round" stroke-linecap="round"></path></svg><svg viewBox="0 0 26.549 30" fill="none" id="tiktok"><path d="M19.67 10.83a11.78 11.78 0 0 0 6.88 2.2v-4.93c-.49 0-.97-.05-1.45-.15v3.88c-2.56 0-4.93-.82-6.87-2.2v10.06a9.11 9.11 0 0 1-14.19 7.57 9.11 9.11 0 0 0 15.63-6.37v-10.06Zm1.79-4.97a6.87 6.87 0 0 1-1.79-4.03v-.63h-1.36a6.9 6.9 0 0 0 3.15 4.66Zm-14.23 17.54a4.17 4.17 0 0 1 4.58-6.5v-5.04a8.7 8.7 0 0 0-1.44-.08v3.92a4.16 4.16 0 0 0-3.14 7.7Z" fill="#FF004F"></path><path d="M18.23 9.63a11.78 11.78 0 0 0 6.88 2.2v-3.88a6.9 6.9 0 0 1-3.65-2.1 6.9 6.9 0 0 1-3.15-4.65h-3.6v19.69a4.17 4.17 0 0 1-7.48 2.5 4.17 4.17 0 0 1 3.14-7.69v-3.92a9.11 9.11 0 0 0-6.33 15.48 9.11 9.11 0 0 0 14.19-7.57v-10.06Z" fill="#000"></path><path d="M25.1 7.95v-1.05a6.88 6.88 0 0 1-3.64-1.04 6.9 6.9 0 0 0 3.65 2.09Zm-6.8-6.75a6.93 6.93 0 0 1-.07-.57v-.63h-4.96v19.69a4.17 4.17 0 0 1-6.04 3.7 4.16 4.16 0 0 0 7.48-2.5v-19.69h3.6Zm-7.93 10.58v-1.12a9.11 9.11 0 0 0-6.33 16.6 9.11 9.11 0 0 1 6.33-15.48Z" fill="#00F2EA"></path></svg><svg viewBox="0 0 20 20" fill="none" id="tm"><defs><linearGradient id="tm_0" x1="1000" y1="0" x2="1000" y2="2000" gradientUnits="userSpaceOnUse"><stop stop-color="#2AABEE"></stop><stop offset="1" stop-color="#229ED9"></stop></linearGradient></defs><path d="M10 0a10 10 0 1 0 0 20 10 10 0 0 0 0-20Z" fill="url(#tm_0)"></path><path d="M4.53 9.9c2.91-1.28 4.86-2.11 5.83-2.52 2.78-1.15 3.35-1.35 3.73-1.36.08 0 .27.02.39.12.1.08.12.19.14.27.01.08.03.25.01.4a118 118 0 0 1-1.13 7.18c-.14.75-.41 1-.68 1.03-.58.05-1.02-.39-1.59-.76-.88-.57-1.37-.93-2.23-1.5-.99-.65-.34-1 .22-1.59.14-.15 2.7-2.48 2.75-2.69 0-.03.02-.12-.04-.18-.06-.05-.15-.03-.21-.02-.09.02-1.5.95-4.22 2.8-.4.27-.76.4-1.08.4a7.76 7.76 0 0 1-1.56-.38c-.62-.2-1.12-.3-1.08-.65.02-.18.27-.37.75-.56Z" fill="#FFF"></path></svg><svg viewBox="0 0 19.91 20" fill="none" id="whatsapp"><defs><linearGradient id="whatsapp_0" x1="995.521" y1="2000" x2="995.521" y2="0" gradientUnits="userSpaceOnUse"><stop stop-color="#1FAF38"></stop><stop offset="1" stop-color="#60D669"></stop></linearGradient></defs><path d="M.08 9.91a9.9 9.9 0 0 0 1.33 4.95l-1.41 5.14 5.26-1.38a9.93 9.93 0 1 0 4.74-18.62 9.93 9.93 0 0 0-9.92 9.91Z" fill="url(#whatsapp_0)"></path><path d="M7.43 5.62c-.2-.43-.4-.44-.58-.45h-.49a.94.94 0 0 0-.68.32c-.24.25-.9.87-.9 2.14 0 1.26.92 2.48 1.05 2.65.13.17 1.77 2.85 4.38 3.87 2.17.86 2.61.69 3.08.65.47-.05 1.52-.62 1.73-1.22.22-.6.22-1.12.15-1.22-.06-.11-.23-.17-.49-.3-.26-.13-1.52-.75-1.75-.84-.24-.08-.41-.13-.58.13-.17.26-.66.84-.81 1-.15.18-.3.2-.56.07-.26-.13-1.08-.4-2.06-1.27a7.73 7.73 0 0 1-1.43-1.78c-.15-.26-.02-.4.11-.52.12-.12.26-.3.39-.45.13-.15.17-.26.25-.43.09-.17.05-.32-.02-.45-.06-.13-.56-1.4-.79-1.9Z" fill="#FFF"></path></svg></svg>