<svg viewBox="0 0 15 22" fill="none" xmlns="http://www.w3.org/2000/svg"><path d="m3.02 12.52-.01 7.38c0 .9.63 1.34 1.4.97l2.69-1.27c.22-.11.59-.11.8 0l2.7 1.27c.77.36 1.4-.07 1.4-.97v-7.56" stroke="#242C3C" stroke-linecap="round" stroke-linejoin="round"/><path d="M7.35 14.2a6.6 6.6 0 1 0 0-13.2 6.6 6.6 0 0 0 0 13.2Z" stroke="#242C3C" stroke-linecap="round" stroke-linejoin="round"/><path d="m8.01 4.96.53 1.06c.07.15.27.3.43.32l.95.16c.62.1.76.55.32 1l-.74.74a.66.66 0 0 0-.16.55l.21.93c.17.73-.22 1.02-.86.63l-.9-.53a.64.64 0 0 0-.6 0l-.89.53c-.64.39-1.03.1-.86-.63l.21-.93a.66.66 0 0 0-.16-.55l-.74-.75c-.44-.44-.3-.89.32-.99l.95-.16a.65.65 0 0 0 .43-.32l.52-1.06c.3-.58.76-.58 1.04 0Z" stroke="#292D32" stroke-linecap="round" stroke-linejoin="round"/></svg>