<svg viewBox="0 0 111 338" fill="none" xmlns="http://www.w3.org/2000/svg"><path d="M494.32-272.1c-69.48 83.14-137.15 119.92-188.51 137.86-42.82 14.95-56.94 10.73-91.4 29.53-74.78 40.8-148.85 137.33-117.4 202.01 15.48 31.86 48.86 30.47 102.15 57.9 47.93 24.67 109.49 71.9 160.46 171.62" stroke="url(#a)" stroke-miterlimit="10"/><path d="M481.76-275.15c-63.17 82-127.62 119.08-176.27 137.71-40.94 15.67-54.76 14.16-89.28 34.67-72.43 43.03-142.74 133.46-114.58 197.34 14.5 32.9 46.24 34.72 98.65 64.2 46.14 25.94 106.26 73.41 156.97 171.57" stroke="url(#b)" stroke-miterlimit="10"/><path d="M469.21-278.2c-56.86 80.87-118.11 118.27-164.03 137.57-39.13 16.44-52.58 17.53-87.18 39.8-70.1 45.13-136.77 129.73-111.75 192.67 13.52 34 43.61 38.93 95.15 70.5 44.34 27.17 103.03 74.94 153.47 171.52" stroke="url(#c)" stroke-miterlimit="10"/><path d="M456.67-281.26c-50.55 79.75-108.64 117.53-151.82 137.44-37.33 17.22-50.37 20.86-85.06 44.95-67.8 47.07-130.94 126.1-108.92 187.99 12.51 35.16 40.97 43.09 91.65 76.8 42.56 28.32 99.8 76.46 149.98 171.46" stroke="url(#d)" stroke-miterlimit="10"/><path d="M444.15-284.31c-44.26 78.63-99.2 116.83-139.6 137.3-35.61 18.04-48.21 24.15-82.97 50.07-65.53 48.9-125.27 122.6-106.09 183.33 11.5 36.38 38.33 47.18 88.15 83.1 40.8 29.41 96.58 77.97 146.48 171.4" stroke="url(#e)" stroke-miterlimit="10"/><path d="M431.63-287.37c-37.96 77.5-89.8 116.2-127.4 137.17-33.92 18.92-46.03 27.37-80.85 55.2-63.32 50.62-119.76 119.2-103.28 178.66 10.44 37.66 35.7 51.22 84.66 89.4 39.05 30.46 93.36 79.49 143 171.36" stroke="url(#f)" stroke-miterlimit="10"/><path d="M419.13-290.42c-31.67 76.38-80.4 115.65-115.21 137.04-32.28 19.83-43.88 30.55-78.76 60.33-61.16 52.23-114.39 115.86-100.45 174 9.35 38.96 33.1 55.2 81.17 95.68 37.33 31.45 90.13 81.01 139.52 171.3" stroke="url(#g)" stroke-miterlimit="10"/><path d="M406.63-293.47c-25.4 75.26-71.02 115.18-103.03 136.9-30.68 20.82-41.75 33.7-76.65 65.47-59.06 53.76-109.17 112.61-97.63 169.33 8.2 40.33 30.5 59.13 77.67 101.98 35.65 32.38 86.92 82.51 136.05 171.25" stroke="url(#h)" stroke-miterlimit="10"/><path d="M394.15-296.52c-19.12 74.13-61.64 114.8-90.86 136.77-29.1 21.87-39.66 36.78-74.55 70.58-57.02 55.22-104.1 109.43-94.82 164.67 7 41.73 27.96 63.01 74.2 108.28 33.98 33.28 83.7 84.03 132.55 171.2" stroke="url(#i)" stroke-miterlimit="10"/><path d="M381.69-299.57c-12.85 73.01-52.25 114.54-78.71 136.64-27.55 23-37.59 39.84-72.45 75.7-55.03 56.6-99.16 106.28-92 160.02 5.73 43.14 25.45 66.83 70.7 114.56 32.36 34.13 80.5 85.55 129.1 171.15" stroke="url(#j)" stroke-miterlimit="10"/><path d="M369.23-302.63c-6.6 71.9-42.83 114.4-66.57 136.51-26 24.22-35.56 42.88-70.35 80.83-53.11 57.94-94.34 103.16-89.2 155.36 4.4 44.6 23 70.6 67.23 120.85 30.78 34.95 77.28 87.06 125.62 171.1" stroke="url(#k)" stroke-miterlimit="10"/><path d="M356.78-305.68c-.33 70.78-33.36 114.35-54.43 136.38-24.42 25.54-33.59 45.88-68.26 85.95-51.25 59.23-89.65 100.07-86.39 150.7 2.97 46.06 20.6 74.35 63.76 127.14 29.22 35.74 74.07 88.58 122.14 171.05" stroke="url(#l)" stroke-miterlimit="10"/><path d="M344.35-308.72c5.92 69.65-23.84 114.39-42.32 136.24-22.78 26.95-31.64 48.84-66.16 91.06-49.45 60.49-85.06 97-83.58 146.07 1.43 47.52 18.26 78.03 60.28 133.4 27.71 36.52 70.87 90.1 118.68 171.01" stroke="url(#m)" stroke-miterlimit="10"/><path d="M331.93-311.77c12.16 68.54-14.24 114.53-30.21 136.12-21.07 28.45-29.76 51.77-64.07 96.17-47.7 61.71-80.57 93.9-80.78 141.41-.2 49 15.98 81.7 56.81 139.69 26.24 37.26 67.68 91.61 115.21 170.96" stroke="url(#n)" stroke-miterlimit="10"/><path d="M319.52-314.82c18.4 67.42-4.54 114.75-18.11 135.98-19.22 30.06-27.92 54.7-61.99 101.29-46 62.93-76.18 90.82-77.97 136.77-1.96 50.46 13.77 85.32 53.35 145.97 24.8 37.99 64.48 93.12 111.76 170.9" stroke="url(#o)" stroke-miterlimit="10"/><path d="M307.12-317.87c24.63 66.31 5.26 115.01-6.03 135.86-17.18 31.73-26.12 57.6-59.9 106.4-44.37 64.12-71.88 87.71-75.17 132.13-3.84 51.9 11.62 88.92 49.88 152.24 23.4 38.72 61.29 94.63 108.3 170.86" stroke="url(#p)" stroke-miterlimit="10"/><path d="M294.73-320.9c30.86 65.18 8.88 113.86 6.05 135.72-4.64 35.77-24.39 60.49-57.81 111.51-42.79 65.32-67.65 84.56-72.38 127.48-5.88 53.31 9.55 92.51 46.43 158.51 22.03 39.44 58.09 96.15 104.83 170.82" stroke="url(#q)" stroke-miterlimit="10"/><path d="M282.1-324.22c37.12 64.1 19.93 114.71 18.13 135.66-3.16 36.7-22.72 63.37-55.79 116.66-41.3 66.54-63.55 81.4-69.65 122.9-8.05 54.69 7.56 96.1 43.02 164.83 20.72 40.17 54.95 97.7 101.5 170.83" stroke="url(#r)" stroke-miterlimit="10"/><path d="M269.4-327.59c43.4 63.01 31.26 115.38 30.22 135.59-1.94 37.71-21.1 66.27-53.78 121.82-39.84 67.77-59.5 78.21-66.95 118.3-10.4 56.04 5.64 99.73 39.61 171.2 19.46 40.9 51.84 99.25 98.18 170.86" stroke="url(#s)" stroke-miterlimit="10"/><path d="M256.7-330.96c49.67 61.92 45.66 115.95 42.32 135.52-6.57 38.53-19.53 69.17-51.75 126.99-38.45 69-55.5 74.95-64.24 113.72-12.9 57.29 3.78 103.33 36.2 177.54 18.21 41.66 48.71 100.82 94.84 170.9" stroke="url(#t)" stroke-miterlimit="10"/><path d="M243.98-334.33c55.96 60.83 56.03 115.99 54.45 135.45-3.24 40-18 72.05-49.72 132.16-37.08 70.25-51.52 71.61-61.52 109.13-15.58 58.46 1.97 106.94 32.78 183.89 16.99 42.41 45.58 102.37 91.5 170.92" stroke="url(#u)" stroke-miterlimit="10"/><path d="M231.26-337.7c62.25 59.74 66.46 115.86 66.6 135.38.3 41.3-16.52 74.94-47.7 137.33-35.74 71.51-47.55 68.2-58.8 104.53-18.4 59.54.24 110.56 29.37 190.25 15.78 43.18 42.43 103.93 88.15 170.95" stroke="url(#v)" stroke-miterlimit="10"/><defs><linearGradient id="a" x1="455.644" y1="34.982" x2="128.962" y2="-72.505" gradientUnits="userSpaceOnUse"><stop stop-color="#A7AFBF"/><stop offset="1" stop-color="#A7AFBF" stop-opacity=".19"/></linearGradient><linearGradient id="b" x1="453.838" y1="36.717" x2="133.334" y2="-68.713" gradientUnits="userSpaceOnUse"><stop stop-color="#A7AFBF"/><stop offset="1" stop-color="#A7AFBF" stop-opacity=".19"/></linearGradient><linearGradient id="c" x1="452.022" y1="38.456" x2="137.644" y2="-64.935" gradientUnits="userSpaceOnUse"><stop stop-color="#A7AFBF"/><stop offset="1" stop-color="#A7AFBF" stop-opacity=".19"/></linearGradient><linearGradient id="d" x1="450.215" y1="40.193" x2="141.889" y2="-61.183" gradientUnits="userSpaceOnUse"><stop stop-color="#A7AFBF"/><stop offset="1" stop-color="#A7AFBF" stop-opacity=".19"/></linearGradient><linearGradient id="e" x1="448.4" y1="41.922" x2="146.065" y2="-57.459" gradientUnits="userSpaceOnUse"><stop stop-color="#A7AFBF"/><stop offset="1" stop-color="#A7AFBF" stop-opacity=".19"/></linearGradient><linearGradient id="f" x1="446.602" y1="43.661" x2="150.167" y2="-53.756" gradientUnits="userSpaceOnUse"><stop stop-color="#A7AFBF"/><stop offset="1" stop-color="#A7AFBF" stop-opacity=".19"/></linearGradient><linearGradient id="g" x1="444.796" y1="45.396" x2="154.195" y2="-50.078" gradientUnits="userSpaceOnUse"><stop stop-color="#A7AFBF"/><stop offset="1" stop-color="#A7AFBF" stop-opacity=".19"/></linearGradient><linearGradient id="h" x1="442.991" y1="47.135" x2="158.148" y2="-46.422" gradientUnits="userSpaceOnUse"><stop stop-color="#A7AFBF"/><stop offset="1" stop-color="#A7AFBF" stop-opacity=".19"/></linearGradient><linearGradient id="i" x1="441.187" y1="48.872" x2="162.026" y2="-42.793" gradientUnits="userSpaceOnUse"><stop stop-color="#A7AFBF"/><stop offset="1" stop-color="#A7AFBF" stop-opacity=".19"/></linearGradient><linearGradient id="j" x1="439.392" y1="50.604" x2="165.84" y2="-39.193" gradientUnits="userSpaceOnUse"><stop stop-color="#A7AFBF"/><stop offset="1" stop-color="#A7AFBF" stop-opacity=".19"/></linearGradient><linearGradient id="k" x1="437.582" y1="52.337" x2="169.568" y2="-35.616" gradientUnits="userSpaceOnUse"><stop stop-color="#A7AFBF"/><stop offset="1" stop-color="#A7AFBF" stop-opacity=".19"/></linearGradient><linearGradient id="l" x1="435.785" y1="54.072" x2="173.233" y2="-32.062" gradientUnits="userSpaceOnUse"><stop stop-color="#A7AFBF"/><stop offset="1" stop-color="#A7AFBF" stop-opacity=".19"/></linearGradient><linearGradient id="m" x1="433.985" y1="55.807" x2="176.828" y2="-28.531" gradientUnits="userSpaceOnUse"><stop stop-color="#A7AFBF"/><stop offset="1" stop-color="#A7AFBF" stop-opacity=".19"/></linearGradient><linearGradient id="n" x1="432.183" y1="57.539" x2="180.36" y2="-25.023" gradientUnits="userSpaceOnUse"><stop stop-color="#A7AFBF"/><stop offset="1" stop-color="#A7AFBF" stop-opacity=".19"/></linearGradient><linearGradient id="o" x1="430.398" y1="59.272" x2="183.82" y2="-21.544" gradientUnits="userSpaceOnUse"><stop stop-color="#A7AFBF"/><stop offset="1" stop-color="#A7AFBF" stop-opacity=".19"/></linearGradient><linearGradient id="p" x1="428.594" y1="61.006" x2="187.212" y2="-18.08" gradientUnits="userSpaceOnUse"><stop stop-color="#A7AFBF"/><stop offset="1" stop-color="#A7AFBF" stop-opacity=".19"/></linearGradient><linearGradient id="q" x1="426.791" y1="62.742" x2="190.536" y2="-14.638" gradientUnits="userSpaceOnUse"><stop stop-color="#A7AFBF"/><stop offset="1" stop-color="#A7AFBF" stop-opacity=".19"/></linearGradient><linearGradient id="r" x1="424.9" y1="64.359" x2="180.982" y2="-15.557" gradientUnits="userSpaceOnUse"><stop stop-color="#A7AFBF"/><stop offset="1" stop-color="#A7AFBF" stop-opacity=".19"/></linearGradient><linearGradient id="s" x1="422.958" y1="65.943" x2="167.822" y2="-17.689" gradientUnits="userSpaceOnUse"><stop stop-color="#A7AFBF"/><stop offset="1" stop-color="#A7AFBF" stop-opacity=".19"/></linearGradient><linearGradient id="t" x1="421.04" y1="67.533" x2="154.661" y2="-19.824" gradientUnits="userSpaceOnUse"><stop stop-color="#A7AFBF"/><stop offset="1" stop-color="#A7AFBF" stop-opacity=".19"/></linearGradient><linearGradient id="u" x1="419.11" y1="69.119" x2="141.496" y2="-21.96" gradientUnits="userSpaceOnUse"><stop stop-color="#A7AFBF"/><stop offset="1" stop-color="#A7AFBF" stop-opacity=".19"/></linearGradient><linearGradient id="v" x1="417.194" y1="70.709" x2="128.33" y2="-24.099" gradientUnits="userSpaceOnUse"><stop stop-color="#A7AFBF"/><stop offset="1" stop-color="#A7AFBF" stop-opacity=".19"/></linearGradient></defs></svg>