<svg viewBox="0 0 23.438 23.438" fill="none" xmlns="http://www.w3.org/2000/svg"><path d="M11.72 0c-3.18 0-3.58.01-4.83.07a8.6 8.6 0 0 0-2.85.55c-.77.3-1.42.7-2.07 1.35a5.74 5.74 0 0 0-1.35 2.07c-.3.75-.5 1.6-.55 2.85a84.59 84.59 0 0 0-.07 4.83c0 3.18.01 3.58.07 4.83a8.6 8.6 0 0 0 .55 2.84c.3.77.7 1.43 1.35 2.08.65.65 1.3 1.05 2.07 1.35.75.3 1.6.49 2.85.55 1.25.05 1.65.07 4.83.07s3.58-.02 4.83-.07a8.62 8.62 0 0 0 2.85-.55c.77-.3 1.42-.7 2.07-1.35a5.75 5.75 0 0 0 1.35-2.08c.29-.74.49-1.6.55-2.84.05-1.25.07-1.65.07-4.83s-.02-3.58-.07-4.83a8.68 8.68 0 0 0-.55-2.85c-.3-.77-.7-1.42-1.35-2.07a5.71 5.71 0 0 0-2.08-1.35 8.63 8.63 0 0 0-2.84-.55 83.6 83.6 0 0 0-4.83-.07Zm-1.05 2.11h1.05c3.13 0 3.5.01 4.74.07 1.14.05 1.76.24 2.17.4.55.21.94.47 1.35.88.4.4.66.8.87 1.35.16.41.36 1.03.4 2.17.06 1.24.08 1.6.08 4.74 0 3.12-.02 3.5-.07 4.73a6.47 6.47 0 0 1-.4 2.18c-.22.54-.47.93-.88 1.34-.41.41-.8.67-1.35.88-.41.16-1.03.35-2.17.4-1.24.06-1.61.07-4.74.07s-3.5-.01-4.74-.07a6.48 6.48 0 0 1-2.17-.4 3.62 3.62 0 0 1-1.35-.88c-.4-.4-.66-.8-.88-1.35a6.46 6.46 0 0 1-.4-2.17 82.4 82.4 0 0 1-.07-4.74 77 77 0 0 1 .07-4.73c.05-1.14.24-1.76.4-2.18.22-.54.47-.93.88-1.34.41-.41.8-.67 1.35-.88a6.48 6.48 0 0 1 2.17-.4 64.7 64.7 0 0 1 3.69-.07Zm7.3 1.95a1.4 1.4 0 1 0 0 2.81 1.4 1.4 0 0 0 0-2.81Zm-6.25 1.64a6.02 6.02 0 1 0 0 12.04 6.02 6.02 0 0 0 0-12.04Zm0 2.11a3.9 3.9 0 1 1 0 7.82 3.9 3.9 0 0 1 0-7.82Z" fill="#FFF"/></svg>