<svg viewBox="0 0 30 30" fill="none" xmlns="http://www.w3.org/2000/svg"><defs><clipPath id="a"><rect rx="7.5" width="29" height="29" transform="translate(.5 .5)" fill="#fff" fill-opacity="0"/></clipPath></defs><g clip-path="url(#a)"><path d="M16.67 10.68a3.34 3.34 0 0 1 2.64 2.64m-2.64-5.32a6.02 6.02 0 0 1 5.32 5.31m-.67 7.35a1.34 1.34 0 0 1-1.46 1.33 13.24 13.24 0 0 1-5.77-2.05 13.05 13.05 0 0 1-4.02-4.01 13.24 13.24 0 0 1-2.05-5.8 1.34 1.34 0 0 1 1.33-1.46h2a1.34 1.34 0 0 1 1.34 1.15c.09.64.25 1.27.47 1.88a1.34 1.34 0 0 1-.3 1.41l-.85.85a10.7 10.7 0 0 0 4.02 4.01l.85-.85a1.34 1.34 0 0 1 1.4-.3c.61.23 1.24.39 1.89.47a1.34 1.34 0 0 1 1.15 1.36v2Z" stroke="#242C3C" stroke-linejoin="round"/></g><rect rx="7.5" width="29" height="29" transform="translate(.5 .5)" stroke="#E5EAF3"/></svg>