<svg viewBox="0 0 21 21" fill="none" xmlns="http://www.w3.org/2000/svg"><rect x=".651" y="1.176" width="19" height="19" rx="9.5" stroke="#E5EAF3"/><path d="M11.26 7.8a2.23 2.23 0 0 1 1.76 1.76m-1.76-3.55a4.01 4.01 0 0 1 3.55 3.54m-.45 3.56v1.34a.9.9 0 0 1-.97.89 8.83 8.83 0 0 1-6.52-4.05 8.83 8.83 0 0 1-1.37-3.86.9.9 0 0 1 .88-.97h1.34a.9.9 0 0 1 .9.76c.05.43.16.85.3 1.26a.9.9 0 0 1-.2.94l-.56.56a7.14 7.14 0 0 0 2.68 2.68l.56-.57a.9.9 0 0 1 .94-.2c.4.15.83.26 1.26.31a.9.9 0 0 1 .76.91Z" stroke="#242C3C" stroke-linecap="round" stroke-linejoin="round"/></svg>