<svg viewBox="0 0 43 42" fill="none" xmlns="http://www.w3.org/2000/svg"><path d="M15.37 42h12.6c10.5 0 14.7-4.2 14.7-14.7v-12.6c0-10.5-4.2-14.7-14.7-14.7h-12.6c-10.5 0-14.7 4.2-14.7 14.7v12.6c0 10.5 4.2 14.7 14.7 14.7Z" fill="#fff"/><path fill-rule="evenodd" clip-rule="evenodd" d="M15.62 11.17c.85-.85 2-1.32 3.21-1.32h5.04a4.54 4.54 0 0 1 4.54 4.54v2.05a4.44 4.44 0 0 0-3.78 4.46v3.07h-6.56v-3.07a4.44 4.44 0 0 0-3.78-4.46v-2.05c0-1.2.48-2.36 1.33-3.22Zm-1.9 6.23a.5.5 0 0 0 .14 0h.1a3.44 3.44 0 0 1 3.11 3.5v8.11h-3.28a.76.76 0 0 1-.76-.76v-4.01a.5.5 0 0 0-.33-.47 3.28 3.28 0 0 1 1.02-6.37Zm-.43-.97v-2.04a5.54 5.54 0 0 1 5.54-5.54h5.04a5.54 5.54 0 0 1 5.54 5.54v2.04a4.28 4.28 0 0 1 3.78 4.26 4.28 4.28 0 0 1-2.52 3.89v3.67a1.76 1.76 0 0 1-1.76 1.76h-.76v2.02a.5.5 0 1 1-1 0v-2.02h-11.6v2.02a.5.5 0 1 1-1 0v-2.02h-.76a1.76 1.76 0 0 1-1.76-1.76v-3.67a4.28 4.28 0 0 1-2.52-3.9 4.28 4.28 0 0 1 3.78-4.25Zm4.78 12.58h6.56v-4.04h-6.56v4.04Zm10.68-11.6a3.18 3.18 0 0 1 1.3.2 3.28 3.28 0 0 1-.04 6.16.5.5 0 0 0-.34.47v4a.76.76 0 0 1-.76.77h-3.27v-8.11a3.44 3.44 0 0 1 3.1-3.5Z" fill="#242C3C"/></svg>