<svg viewBox="0 0 42 42" fill="none" xmlns="http://www.w3.org/2000/svg"><path d="M14.7 42h12.6c10.5 0 14.7-4.2 14.7-14.7v-12.6c0-10.5-4.2-14.7-14.7-14.7h-12.6c-10.5 0-14.7 4.2-14.7 14.7v12.6c0 10.5 4.2 14.7 14.7 14.7Z" fill="#fff"/><path d="M12.35 25.66h-1.38a1.55 1.55 0 0 1-1.56-1.55v-1.85m25 3.4h1.41a1.55 1.55 0 0 0 1.56-1.55v-3.47a1.55 1.55 0 0 0-1.06-1.55l-3.6-1.2-5.8-4.35c-.27-.2-.6-.3-.93-.3h-9.52a1.55 1.55 0 0 0-1.31.7l-2.64 3.95-2.25 1.12a1.55 1.55 0 0 0-.86 1.4v1.85m0 0h-3.07" stroke="#242C3C" stroke-linecap="round" stroke-linejoin="round"/><path d="M27.9 25.66h-9.01m-3.26-3.1a3.1 3.1 0 1 0 0 6.2 3.1 3.1 0 0 0 0-6.2Zm15.53 0a3.1 3.1 0 1 0 0 6.2 3.1 3.1 0 0 0 0-6.2Z" stroke="#242C3C" stroke-linecap="round" stroke-linejoin="round"/><circle cx="5.793" cy="20.426" r="1.653" stroke="#242C3C"/><circle cx="5.793" cy="23.894" r="1.653" stroke="#242C3C"/></svg>