<svg viewBox="0 0 43 42" fill="none" xmlns="http://www.w3.org/2000/svg"><path d="M15.37 42h12.6c10.5 0 14.7-4.2 14.7-14.7v-12.6c0-10.5-4.2-14.7-14.7-14.7h-12.6c-10.5 0-14.7 4.2-14.7 14.7v12.6c0 10.5 4.2 14.7 14.7 14.7Z" fill="#fff"/><path d="M16.63 24.78a2.52 2.52 0 0 1-2.52-2.52v-2.52h15.12v2.52a2.52 2.52 0 0 1-2.52 2.52m-10.08 0h10.08m-10.08 0-1.26 7.56h12.6l-1.26-7.56m-12.6-15.12h15.12m-16.38 10.08h17.64m-2.52 0h-12.6v-10.08h12.6v10.08Z" stroke="#242C3C" stroke-linecap="round" stroke-linejoin="round"/></svg>