<svg viewBox="0 0 43 42" fill="none" xmlns="http://www.w3.org/2000/svg"><path d="M15.03 42h12.6c10.5 0 14.7-4.2 14.7-14.7v-12.6c0-10.5-4.2-14.7-14.7-14.7h-12.6c-10.5 0-14.7 4.2-14.7 14.7v12.6c0 10.5 4.2 14.7 14.7 14.7Z" fill="#fff"/><path d="M13.75 30.12v-18.24m0 18.24h15.17m-15.17 0-6.2 5.84m6.2-24.08h15.17m-15.17 0-6.2-5.84m21.37 5.84v18.24m0-18.24 6.2-5.84m-6.2 24.08 6.2 5.84" stroke="#242C3C" stroke-linecap="round" stroke-linejoin="round"/><path d="M11.51 12.27v17.46m-1.98-19.33v21.2m-1.98-23.07v24.94m23.6-21.2v17.46m1.98-19.33v21.2m1.98-23.07v24.94" stroke="#242C3C" stroke-linecap="round"/></svg>