<svg viewBox="0 0 42 42" fill="none" xmlns="http://www.w3.org/2000/svg"><path d="M14.7 42h12.6c10.5 0 14.7-4.2 14.7-14.7v-12.6c0-10.5-4.2-14.7-14.7-14.7h-12.6c-10.5 0-14.7 4.2-14.7 14.7v12.6c0 10.5 4.2 14.7 14.7 14.7Z" fill="#fff"/><path d="M19.74 12.18a3.78 3.78 0 0 0-7.56 0v8.82" stroke="#242C3C" stroke-linecap="round" stroke-linejoin="round"/><path d="M9.66 21h22.68m-4.41 7.56.63 2.52m-14.49-2.52-.63 2.52m17.64-7.56v-2.52h-20.16v2.52a5.04 5.04 0 0 0 5.04 5.04h10.08a5.04 5.04 0 0 0 5.04-5.04Zm-8.82-8.82a2.52 2.52 0 1 0-5.04 0h5.04Z" stroke="#242C3C" stroke-linecap="round" stroke-linejoin="round"/></svg>