<svg viewBox="0 0 43 42" fill="none" xmlns="http://www.w3.org/2000/svg"><path d="M15.03 42h12.6c10.5 0 14.7-4.2 14.7-14.7v-12.6c0-10.5-4.2-14.7-14.7-14.7h-12.6c-10.5 0-14.7 4.2-14.7 14.7v12.6c0 10.5 4.2 14.7 14.7 14.7Z" fill="#fff"/><path d="M10.3 25.1v3.78a1.26 1.26 0 0 0 1.27 1.26h20.16a1.26 1.26 0 0 0 1.26-1.26v-3.78m-22.68 0h22.68m-22.68 0 2.52-7.56m20.16 7.56-2.52-7.56m0 0h-17.64m17.64 0v-6.3a1.26 1.26 0 0 0-1.26-1.26h-15.12a1.26 1.26 0 0 0-1.26 1.26v6.3m0 12.6v2.52m17.64-2.52v2.52" stroke="#242C3C" stroke-linecap="round" stroke-linejoin="round"/></svg>