<svg viewBox="0 0 26.549 30" fill="none" xmlns="http://www.w3.org/2000/svg"><path d="M19.67 10.83a11.78 11.78 0 0 0 6.88 2.2v-4.93c-.49 0-.97-.05-1.45-.15v3.88c-2.56 0-4.93-.82-6.87-2.2v10.06a9.11 9.11 0 0 1-14.19 7.57 9.11 9.11 0 0 0 15.63-6.37v-10.06Zm1.79-4.97a6.87 6.87 0 0 1-1.79-4.03v-.63h-1.36a6.9 6.9 0 0 0 3.15 4.66Zm-14.23 17.54a4.17 4.17 0 0 1 4.58-6.5v-5.04a8.7 8.7 0 0 0-1.44-.08v3.92a4.16 4.16 0 0 0-3.14 7.7Z" fill="#FF004F"/><path d="M18.23 9.63a11.78 11.78 0 0 0 6.88 2.2v-3.88a6.9 6.9 0 0 1-3.65-2.1 6.9 6.9 0 0 1-3.15-4.65h-3.6v19.69a4.17 4.17 0 0 1-7.48 2.5 4.17 4.17 0 0 1 3.14-7.69v-3.92a9.11 9.11 0 0 0-6.33 15.48 9.11 9.11 0 0 0 14.19-7.57v-10.06Z" fill="#000"/><path d="M25.1 7.95v-1.05a6.88 6.88 0 0 1-3.64-1.04 6.9 6.9 0 0 0 3.65 2.09Zm-6.8-6.75a6.93 6.93 0 0 1-.07-.57v-.63h-4.96v19.69a4.17 4.17 0 0 1-6.04 3.7 4.16 4.16 0 0 0 7.48-2.5v-19.69h3.6Zm-7.93 10.58v-1.12a9.11 9.11 0 0 0-6.33 16.6 9.11 9.11 0 0 1 6.33-15.48Z" fill="#00F2EA"/></svg>