<svg viewBox="0 0 20 20" fill="none" xmlns="http://www.w3.org/2000/svg"><defs><linearGradient id="a" x1="1000" y1="0" x2="1000" y2="2000" gradientUnits="userSpaceOnUse"><stop stop-color="#2AABEE"/><stop offset="1" stop-color="#229ED9"/></linearGradient></defs><path d="M10 0a10 10 0 1 0 0 20 10 10 0 0 0 0-20Z" fill="url(#a)"/><path d="M4.53 9.9c2.91-1.28 4.86-2.11 5.83-2.52 2.78-1.15 3.35-1.35 3.73-1.36.08 0 .27.02.39.12.1.08.12.19.14.27.01.08.03.25.01.4a118 118 0 0 1-1.13 7.18c-.14.75-.41 1-.68 1.03-.58.05-1.02-.39-1.59-.76-.88-.57-1.37-.93-2.23-1.5-.99-.65-.34-1 .22-1.59.14-.15 2.7-2.48 2.75-2.69 0-.03.02-.12-.04-.18-.06-.05-.15-.03-.21-.02-.09.02-1.5.95-4.22 2.8-.4.27-.76.4-1.08.4a7.76 7.76 0 0 1-1.56-.38c-.62-.2-1.12-.3-1.08-.65.02-.18.27-.37.75-.56Z" fill="#FFF"/></svg>