<svg viewBox="0 0 19.91 20" fill="none" xmlns="http://www.w3.org/2000/svg"><defs><linearGradient id="a" x1="995.521" y1="2000" x2="995.521" y2="0" gradientUnits="userSpaceOnUse"><stop stop-color="#1FAF38"/><stop offset="1" stop-color="#60D669"/></linearGradient></defs><path d="M.08 9.91a9.9 9.9 0 0 0 1.33 4.95l-1.41 5.14 5.26-1.38a9.93 9.93 0 1 0 4.74-18.62 9.93 9.93 0 0 0-9.92 9.91Z" fill="url(#a)"/><path d="M7.43 5.62c-.2-.43-.4-.44-.58-.45h-.49a.94.94 0 0 0-.68.32c-.24.25-.9.87-.9 2.14 0 1.26.92 2.48 1.05 2.65.13.17 1.77 2.85 4.38 3.87 2.17.86 2.61.69 3.08.65.47-.05 1.52-.62 1.73-1.22.22-.6.22-1.12.15-1.22-.06-.11-.23-.17-.49-.3-.26-.13-1.52-.75-1.75-.84-.24-.08-.41-.13-.58.13-.17.26-.66.84-.81 1-.15.18-.3.2-.56.07-.26-.13-1.08-.4-2.06-1.27a7.73 7.73 0 0 1-1.43-1.78c-.15-.26-.02-.4.11-.52.12-.12.26-.3.39-.45.13-.15.17-.26.25-.43.09-.17.05-.32-.02-.45-.06-.13-.56-1.4-.79-1.9Z" fill="#FFF"/></svg>